<?xml version="1.0" encoding="UTF-8" standalone="no"?>
<svg width="37px" height="32px" viewBox="0 0 37 32" version="1.1" xmlns="http://www.w3.org/2000/svg" xmlns:xlink="http://www.w3.org/1999/xlink" xmlns:sketch="http://www.bohemiancoding.com/sketch/ns">
    <title>01</title>
    <description>Created with Sketch (http://www.bohemiancoding.com/sketch)</description>
    <defs></defs>
    <g id="Page-9" stroke="none" stroke-width="1" fill="none" fill-rule="evenodd" sketch:type="MSPage">
        <path d="M33.0051972,2 C35.2154131,2 37,3.79053632 37,5.9992748 L37,28.0007252 C37,30.2132053 35.2114659,32 33.0051972,32 L3.99480279,32 C1.78458691,32 0,30.2094637 0,28.0007252 L0,5.9992748 C0,3.78679466 1.78853413,2 3.99480279,2 L11.0000057,2 C11.0026135,0.891282517 11.8934086,0 12.9918842,0 L24.0081158,0 C25.104988,0 25.9973731,0.894979068 25.9999942,2 L33.0051972,2 Z M30,17.5 C30,11.1487251 24.8512749,6 18.5,6 C12.1487251,6 7,11.1487251 7,17.5 C7,23.8512749 12.1487251,29 18.5,29 C24.8512749,29 30,23.8512749 30,17.5 Z M27.9506566,16.52577 C27.4628191,11.7367334 23.4177902,8 18.5,8 C13.2532946,8 9,12.2532946 9,17.5 C9,20.2565375 10.174032,22.738865 12.0493434,24.47423 C12.0167155,24.1539262 12,23.8289152 12,23.5 C12,18.2532946 16.2532946,14 21.5,14 C23.9901679,14 26.2565601,14.9580967 27.9506566,16.52577 Z M33,8 C33,6.89543045 32.1045696,6 31,6 C29.8954304,6 29,6.89543045 29,8 C29,9.10456955 29.8954304,10 31,10 C32.1045696,10 33,9.10456955 33,8 Z M33,8" id="Rectangle-22" fill="#000000" sketch:type="MSShapeGroup"></path>
    </g>
</svg>