<?xml version="1.0" encoding="UTF-8" standalone="no"?>
<svg width="17px" height="26px" viewBox="0 0 17 26" version="1.1" xmlns="http://www.w3.org/2000/svg" xmlns:xlink="http://www.w3.org/1999/xlink" xmlns:sketch="http://www.bohemiancoding.com/sketch/ns">
    <title>01</title>
    <description>Created with Sketch (http://www.bohemiancoding.com/sketch)</description>
    <defs></defs>
    <g id="Page-9" stroke="none" stroke-width="1" fill="none" fill-rule="evenodd" sketch:type="MSPage">
        <path d="M13.5614792,0 C13.4585673,0 13.3574671,0.00773692259 13.2587313,0.0226578269 C12.7993543,-0.0584937567 12.3089864,0.0783649896 11.9544414,0.432909932 L0.432909932,11.9544414 C-0.144536119,12.5318875 -0.144070456,13.4685782 0.432909932,14.0455586 L11.9544414,25.5670901 C12.3090518,25.9217004 12.7991406,26.0583685 13.258205,25.9774178 C13.3570613,25.9922897 13.4583332,26 13.5614792,26 L17,26 L17,0 L13.5614792,0 Z M13,13 C13,11.3431457 11.6568543,10 10,10 C8.34314567,10 7,11.3431457 7,13 C7,14.6568543 8.34314567,16 10,16 C11.6568543,16 13,14.6568543 13,13 Z M13,13" id="Rectangle-23" fill="#000000" sketch:type="MSShapeGroup"></path>
    </g>
</svg>